<mxfile host="app.diagrams.net" modified="2023-09-11T08:27:17.348Z" agent="Mozilla/5.0 (Windows NT 10.0; Win64; x64) AppleWebKit/537.36 (KHTML, like Gecko) Chrome/116.0.0.0 Safari/537.36" version="21.7.2" etag="TRox0TIrx8AyffQ0H5SW" type="github">
  <diagram name="페이지-1" id="vqJxxlRnTim6Y1GC6nC5">
    <mxGraphModel>
      <root>
        <mxCell id="0" />
        <mxCell id="1" parent="0" />
      </root>
    </mxGraphModel>
  </diagram>
</mxfile>
